<svg width="191" height="220" viewBox="0 0 191 220" fill="none" xmlns="http://www.w3.org/2000/svg">
    <path d="M13.1371 126.743C14.343 126.586 14.8273 128.257 13.7297 128.78C8.39099 131.32 0.296797 135.85 -1.20236 140.55C-3.47097 147.671 -0.678547 152.748 4.36292 158.449C4.36292 158.449 5.12587 145.463 18.1821 138.178C19.1044 137.665 20.0125 138.862 19.2656 139.601C14.0391 144.8 5.33501 154.257 5.7865 159.259C6.4306 166.381 11.8277 174.224 23.078 176.748C23.078 176.748 16.7123 162.221 29.6378 146.626C30.3661 145.751 31.7515 146.601 31.304 147.646C28.3035 154.657 23.7386 166.831 24.9951 173.481C26.8304 183.189 34.4165 187.303 44.3407 188.075C44.3407 188.075 37.865 174.572 40.862 161.589C41.0058 160.978 41.9101 161.121 41.868 161.745C41.3705 169.046 41.509 182.93 48.6942 190.132C48.6942 190.132 62.7667 192.741 62.3676 192.215C70.3113 198.326 85.5621 192.844 85.5621 192.844C85.5621 192.844 96.0789 182.275 93.0766 170.892C93.4257 171.448 93.6213 171.768 93.6213 171.768C98.3332 162.239 95.896 157.349 95.896 157.349C91.6589 148.105 78.695 143.125 71.6805 141.04C71.081 140.864 71.2652 139.961 71.8833 140.043C85.1015 141.768 95.4907 152.554 95.4907 152.554C98.2303 142.981 97.028 134.435 88.5721 129.328C82.7797 125.828 69.7759 125.853 62.159 126.22C61.0262 126.272 60.7126 124.676 61.7836 124.301C80.9156 117.634 92.3025 128.673 92.3025 128.673C93.8686 117.251 88.4036 109.453 81.9532 106.364C77.4281 104.194 65.5194 109.045 58.8288 112.131C57.8737 112.569 57.0705 111.297 57.8681 110.616C69.2586 100.924 81.6911 104.747 81.6911 104.747C78.1121 98.0306 74.331 93.64 66.8632 93.2802C61.9375 93.0408 54.8616 99.0451 50.6189 103.162C49.7469 104.007 48.3508 102.969 48.9199 101.893C53.7292 92.7727 63.2133 90.1154 63.2133 90.1154C54.2394 83.1678 40.2324 84.2817 32.6481 95.5674C27.5324 103.186 33.7462 112.383 34.436 116.871C34.4666 116.904 34.4971 116.931 34.524 116.969C34.532 116.978 34.5401 116.994 34.5481 117.002L38.4043 124.841L32.3109 118.555C32.2772 118.504 32.2514 118.455 32.2243 118.404C28.2652 116.191 22.0315 107.386 12.8922 109.289C-0.42265 112.062 -6.26674 125.187 -2.89024 136.027C-2.89024 136.027 2.91085 128.063 13.1371 126.743Z" stroke="#FAFFDE" stroke-width="0.333333" stroke-miterlimit="10"/>
    <path d="M38.4055 124.842L85.5634 192.845" stroke="#FAFFDE" stroke-width="0.333333" stroke-miterlimit="10"/>
    <path d="M33.3779 95.4753C37.5713 98.8165 45.0481 104.747 44.9489 104.142C46.0468 106.626 47.8313 108.76 49.9692 110.531M12.748 65.5805C12.2757 73.7257 16.6008 80.4292 23.6915 85.8895" stroke="#FAFFDE" stroke-width="0.333333" stroke-miterlimit="10"/>
    <path d="M29.8396 -1.12111C31.3126 -0.547794 30.8297 1.66302 29.2493 1.57711C21.5694 1.15821 9.49654 1.29695 4.8604 5.7336C-2.16688 12.465 -2.13377 20.0047 0.0838882 29.6585C0.0838882 29.6585 9.03156 15.2895 28.4928 15.0924C29.8631 15.0789 30.158 17.0073 28.8454 17.3913C19.6363 20.0776 3.80108 25.4737 1.20457 31.4697C-2.49022 40.0114 -1.20686 52.3346 10.0804 62.2192C10.0804 62.2192 11.8457 41.6559 36.3284 31.8748C37.7024 31.3269 38.7585 33.159 37.5956 34.0755C29.805 40.2204 17.0109 51.2951 14.3073 59.6783C10.3615 71.9158 16.4697 81.3365 27.3356 88.3996C27.3356 88.3996 28.336 68.9339 39.845 55.9606C40.3866 55.3492 41.3364 56.0771 40.8953 56.7669C35.7849 64.8003 27.3015 80.7584 31.0313 93.4566C31.0313 93.4566 45.4933 105.195 45.3628 104.35C50.6384 116.278 71.4837 119.505 71.4837 119.505C71.4837 119.505 90.0777 113.968 93.7296 99.0879C93.7862 99.9422 93.8074 100.431 93.8074 100.431C105.123 92.4704 105.382 85.365 105.382 85.365C106.293 72.1623 94.5797 58.4005 87.8558 51.6553C87.2813 51.0776 88.0529 50.1607 88.7111 50.6416C102.74 60.8373 107.902 79.6294 107.902 79.6294C116.992 70.3987 120.936 59.8815 114.452 48.7788C110.01 41.1742 95.1285 33.1116 86.1971 28.7844C84.8656 28.143 85.5048 26.1224 86.964 26.3645C112.974 30.6514 119.121 50.3501 119.121 50.3501C128.022 38.2707 126.626 25.9578 121.176 18.4119C117.354 13.1159 100.726 11.2517 91.1595 10.6093C89.7909 10.52 89.667 8.56706 91.0053 8.28775C110.051 4.29645 121.885 16.4002 121.885 16.4002C121.972 6.49644 120.382 -0.872306 112.073 -5.93237C106.589 -9.26971 94.7694 -6.80903 87.3604 -4.74773C85.8355 -4.32385 84.8849 -6.37938 86.2009 -7.25504C97.3776 -14.6882 109.87 -11.8169 109.87 -11.8169C103.937 -25.3504 87.2385 -32.7888 71.5456 -24.6081C60.9585 -19.0904 62.3343 -4.7056 60.3314 0.852093C60.3444 0.90772 60.3611 0.958059 60.3663 1.01776C60.3705 1.03197 60.3723 1.05403 60.3765 1.06824L59.9066 12.4304L56.8547 1.45183C56.8427 1.37928 56.8488 1.30374 56.8498 1.2309C53.6976 -3.76788 52.0545 -17.7124 40.4222 -21.2217C23.4816 -26.3363 8.62888 -14.9767 5.74209 -0.484512C5.74209 -0.484512 17.3323 -5.97633 29.8396 -1.12111Z" stroke="#FAFFDE" stroke-width="0.333333" stroke-miterlimit="10"/>
    <path d="M59.906 12.4313L71.4831 119.506" stroke="#FAFFDE" stroke-width="0.333333" stroke-miterlimit="10"/>
    <path d="M12.7485 65.5797C12.2762 73.7249 16.6013 80.4284 23.6907 85.8925M33.3784 95.4744C37.5732 98.8182 45.0474 104.75 44.9494 104.141C46.0473 106.625 47.8292 108.761 49.9697 110.53" stroke="#FAFFDE" stroke-width="0.333333" stroke-miterlimit="10"/>
</svg>
