<svg width="513" height="369" viewBox="0 0 513 369" fill="none" xmlns="http://www.w3.org/2000/svg">
    <path d="M27.1796 204.398H223.492C237.951 204.398 249.672 192.678 249.672 178.219V42.5065C249.672 28.0501 237.951 16.3269 223.492 16.3269H27.1796C12.7232 16.3269 1 28.0501 1 42.5065V178.219C1 192.678 12.7232 204.398 27.1796 204.398Z" fill="black"/>
    <path d="M1 162.724H249.672" stroke="#FF6701" stroke-width="0.333333" stroke-miterlimit="10" stroke-linecap="round" stroke-linejoin="round"/>
    <path d="M233.965 5.85547H37.6522C23.1933 5.85547 11.4727 17.5787 11.4727 32.035V167.747C11.4727 182.206 23.1933 193.927 37.6522 193.927H233.965C248.421 193.927 260.145 182.206 260.145 167.747V32.035C260.145 17.5787 248.421 5.85547 233.965 5.85547ZM233.965 6.50996C248.039 6.50996 259.49 17.9609 259.49 32.035V167.747C259.49 181.822 248.039 193.273 233.965 193.273H37.6522C23.5781 193.273 12.1271 181.822 12.1271 167.747V32.035C12.1271 17.9609 23.5781 6.50996 37.6522 6.50996H233.965Z" fill="#FAFFDE"/>
    <path d="M203.876 152.252H46.7986C46.7986 108.875 81.9604 73.7129 125.335 73.7129C168.709 73.7129 203.876 108.875 203.876 152.252Z" fill="#FAFFDE"/>
    <path d="M209.112 162.724H41.563V157.488C41.563 154.597 43.9061 152.252 46.7989 152.252H203.876C206.767 152.252 209.112 154.597 209.112 157.488V162.724Z" fill="#FFD16F"/>
    <path d="M127.957 73.7124H122.721V58.0046H127.957V73.7124Z" fill="#FFD16F"/>
    <path d="M135.81 55.3874C135.81 56.8325 134.637 58.0054 133.192 58.0054H117.484C116.036 58.0054 114.866 56.8325 114.866 55.3874C114.866 53.9397 116.036 52.7695 117.484 52.7695H133.192C134.637 52.7695 135.81 53.9397 135.81 55.3874Z" fill="#FFD16F"/>
    <path d="M127.956 58.0054H122.72" stroke="black" stroke-width="0.333333" stroke-miterlimit="10"/>
    <path d="M137.515 36.7725L162.153 12.1322" stroke="#FF6701" stroke-width="0.333333" stroke-miterlimit="10" stroke-linecap="round" stroke-linejoin="round"/>
    <path d="M113.158 36.7725L88.5205 12.1322" stroke="#FF6701" stroke-width="0.333333" stroke-miterlimit="10" stroke-linecap="round" stroke-linejoin="round"/>
    <path d="M125.337 0.901187V36.7725" stroke="#FF6701" stroke-width="0.333333" stroke-miterlimit="10" stroke-linecap="round" stroke-linejoin="round"/>
    <path d="M72.9785 353.604H407.169C410.062 353.604 412.405 351.259 412.405 348.369V334.58C412.405 331.69 410.062 329.344 407.169 329.344H72.9785V353.604Z" fill="#FF6701"/>
    <path d="M98.3604 183.051L104.395 190.698V250.806H43.4775V209.23C43.4775 194.774 55.1981 183.051 69.6571 183.051H98.3604Z" fill="#FFD16F"/>
    <path d="M308.472 183.051H80.1283C65.6693 183.051 53.9487 194.774 53.9487 209.231V259.383H334.651V209.231C334.651 194.774 322.931 183.051 308.472 183.051Z" fill="#FF6701"/>
    <path d="M72.9785 250.806V329.345H392.013V276.986C392.013 262.53 380.293 250.806 365.834 250.806H72.9785Z" fill="#FAFFDE"/>
    <path d="M392.014 353.604H72.9795V369H392.014V353.604Z" fill="#FF6701"/>
    <path d="M72.9783 353.604H19.2447C16.3519 353.604 14.0088 351.259 14.0088 348.369V334.58C14.0088 331.69 16.3519 329.344 19.2447 329.344H72.9783V353.604Z" fill="#FFD16F"/>
    <path d="M72.9785 250.806V329.345H17.2971V276.986C17.2971 262.53 29.0177 250.806 43.4767 250.806H72.9785Z" fill="#FAFFDE"/>
    <path d="M160.938 250.806V329.345H105.257V276.986C105.257 262.53 116.98 250.806 131.437 250.806H160.938Z" fill="#FAFFDE"/>
    <path d="M17.2981 353.604H72.9795V369H17.2981V353.604Z" fill="#FFD16F"/>
    <path d="M245.158 219.391H292.765C298.549 219.391 303.237 224.079 303.237 229.862V250.806H234.686V229.862C234.686 224.079 239.372 219.391 245.158 219.391Z" fill="#FFD16F"/>
    <path d="M250.394 219.391H298.001C303.784 219.391 308.473 224.079 308.473 229.862V250.806H239.922V229.862C239.922 224.079 244.608 219.391 250.394 219.391Z" fill="#FAFFDE"/>
    <path d="M109.63 219.391H157.238C163.021 219.391 167.709 224.079 167.709 229.862V250.806H99.1582V229.862C99.1582 224.079 103.844 219.391 109.63 219.391Z" fill="#FFD16F"/>
    <path d="M114.866 219.391H162.473C168.256 219.391 172.945 224.079 172.945 229.862V250.806H104.394V229.862C104.394 224.079 109.08 219.391 114.866 219.391Z" fill="#FAFFDE"/>
    <path d="M392.014 353.604H17.2979" stroke="black" stroke-width="0.333333" stroke-miterlimit="10"/>
    <path d="M308.472 250.806H239.92" stroke="black" stroke-width="0.333333" stroke-miterlimit="10"/>
    <path d="M172.944 250.806H104.393" stroke="black" stroke-width="0.333333" stroke-miterlimit="10"/>
    <path d="M72.9785 329.345V276.986C72.9785 262.53 84.6991 250.806 99.1581 250.806" stroke="black" stroke-width="0.333333" stroke-miterlimit="10"/>
    <path d="M303.236 177.815H93.1237H74.8923H64.4205C49.9615 177.815 38.2409 189.538 38.2409 203.994V245.57C23.7819 245.57 12.0613 257.291 12.0613 271.75V324.109H14.0064C11.1162 324.109 8.77051 326.452 8.77051 329.345V343.131C8.77051 346.024 11.1162 348.367 14.0064 348.367H12.0613V363.763H67.74H386.778V348.367H401.933C404.826 348.367 407.169 346.024 407.169 343.131V329.345C407.169 326.452 404.826 324.109 401.933 324.109H386.778V271.75C386.778 257.291 375.057 245.57 360.598 245.57H329.415V203.994C329.415 189.538 317.695 177.815 303.236 177.815ZM303.236 178.469C317.31 178.469 328.761 189.92 328.761 203.994V245.57C328.761 245.934 329.054 246.225 329.415 246.225H360.598C374.672 246.225 386.123 257.676 386.123 271.75V324.109C386.123 324.473 386.416 324.763 386.778 324.763H401.933C404.459 324.763 406.514 326.819 406.514 329.345V343.131C406.514 345.657 404.459 347.712 401.933 347.712H386.778C386.416 347.712 386.123 348.006 386.123 348.367V363.109H67.74H12.7158V349.021H14.0064C14.3703 349.021 14.6609 348.728 14.6609 348.367C14.6609 348.006 14.3703 347.712 14.0064 347.712C11.4827 347.712 9.425 345.657 9.425 343.131V329.345C9.425 326.819 11.4827 324.763 14.0064 324.763C14.3703 324.763 14.6609 324.473 14.6609 324.109C14.6609 323.748 14.3703 323.454 14.0064 323.454H12.7158V271.75C12.7158 257.676 24.1641 246.225 38.2409 246.225C38.6021 246.225 38.8954 245.934 38.8954 245.57V203.994C38.8954 189.92 50.3437 178.469 64.4205 178.469H74.8923H93.1237H303.236Z" fill="#FAFFDE"/>
    <path d="M506.619 71.683V281.12C506.619 295.573 494.914 307.299 480.439 307.299H375.721C361.267 307.299 349.541 295.573 349.541 281.12V71.683C349.541 57.2319 361.267 45.5034 375.721 45.5034H480.439C494.914 45.5034 506.619 57.2319 506.619 71.683Z" fill="black"/>
    <path d="M506.618 71.683V281.12C506.618 295.573 494.914 307.299 480.439 307.299H401.926V45.5034H480.439C494.914 45.5034 506.618 57.2319 506.618 71.683Z" fill="#FF6701"/>
    <path d="M475.203 40.2671H370.485C356.031 40.2671 344.305 51.9955 344.305 66.4467V275.883C344.305 290.337 356.031 302.063 370.485 302.063H475.203C489.678 302.063 501.383 290.337 501.383 275.883V66.4467C501.383 51.9955 489.678 40.2671 475.203 40.2671ZM475.203 40.9216C489.277 40.9216 500.728 52.3725 500.728 66.4467V275.883C500.728 289.958 489.277 301.408 475.203 301.408H370.485C356.408 301.408 344.96 289.958 344.96 275.883V66.4467C344.96 52.3725 356.408 40.9216 370.485 40.9216H475.203Z" fill="#FAFFDE"/>
    <path d="M461.045 105.405V267.718C461.045 273.501 456.356 278.19 450.573 278.19H392.978C387.195 278.19 382.506 273.501 382.506 267.718V153.722C382.506 151.423 384.003 149.397 386.2 148.719L436.122 133.338C441.543 131.66 444.997 126.662 444.997 121.322C444.997 119.934 444.761 118.521 444.266 117.13C441.907 110.405 434.394 106.975 427.77 109.617L389.679 124.775C386.242 126.144 382.506 123.613 382.506 119.911V105.405C382.506 99.6216 387.195 94.9328 392.978 94.9328H450.573C456.356 94.9328 461.045 99.6216 461.045 105.405Z" fill="#036C48"/>
    <path d="M458.427 105.405V267.718C458.427 273.501 453.738 278.19 447.955 278.19H390.36C384.577 278.19 379.888 273.501 379.888 267.718V153.722C379.888 151.423 381.386 149.397 383.582 148.719L433.504 133.338C438.926 131.66 442.379 126.662 442.379 121.322C442.379 119.934 442.143 118.521 441.648 117.13C439.29 110.405 431.776 106.975 425.153 109.617L387.061 124.775C383.624 126.144 379.888 123.613 379.888 119.911V105.405C379.888 99.6216 384.577 94.9328 390.36 94.9328H447.955C453.738 94.9328 458.427 99.6216 458.427 105.405Z" fill="#FAFFDE"/>
    <path d="M448.523 121.503C448.523 131.622 440.318 139.829 430.197 139.829C420.076 139.829 411.871 131.622 411.871 121.503C411.871 111.382 420.076 103.177 430.197 103.177C440.318 103.177 448.523 111.382 448.523 121.503Z" fill="#FFD16F"/>
    <path d="M445.904 121.503C445.904 130.177 438.87 137.211 430.197 137.211C421.523 137.211 414.489 130.177 414.489 121.503C414.489 112.828 421.523 105.796 430.197 105.796C438.87 105.796 445.904 112.828 445.904 121.503Z" stroke="black" stroke-width="0.333333" stroke-miterlimit="10"/>
    <path d="M507.973 129.557L431.833 134.07C424.694 134.355 418.753 128.646 418.753 121.504C418.753 114.359 424.694 108.652 431.833 108.935L507.973 113.448C510.78 113.561 513 115.867 513 118.679V124.326C513 127.135 510.78 129.444 507.973 129.557Z" fill="#FFD16F"/>
    <path d="M444.189 133.338L431.832 134.068C424.696 134.356 418.753 128.646 418.753 121.502C418.753 114.36 424.696 108.65 431.832 108.936L444.189 109.669" stroke="black" stroke-width="0.333333" stroke-miterlimit="10" stroke-linecap="round" stroke-linejoin="round"/>
    <path d="M438.051 121.503C438.051 125.839 434.535 129.357 430.197 129.357C425.859 129.357 422.343 125.839 422.343 121.503C422.343 117.165 425.859 113.649 430.197 113.649C434.535 113.649 438.051 117.165 438.051 121.503Z" stroke="black" stroke-width="0.333333" stroke-miterlimit="10"/>
    <path d="M435.423 121.503V122.812H430.187V121.503H427.569V122.812H424.951V120.194H432.805V121.503H435.423Z" fill="black"/>
    <path d="M408.649 174.412H428.284V205.308L425.502 227.847H411.431L408.649 205.308V174.412ZM408.649 235.719H428.284V254.914H408.649V235.719Z" fill="#FF6701"/>
</svg>
